<?xml version="1.0" encoding="UTF-8"?>
<svg width="350px" height="72px" viewBox="0 0 350 72" version="1.1" xmlns="http://www.w3.org/2000/svg" xmlns:xlink="http://www.w3.org/1999/xlink">
    <!-- Generator: Sketch 51.2 (57519) - http://www.bohemiancoding.com/sketch -->
    <title>parcel1a</title>
    <desc>Created with Sketch.</desc>
    <defs></defs>
    <g id="Page-1" stroke="none" stroke-width="1" fill="none" fill-rule="evenodd">
        <g id="parcel1a" fill="#E7DACB" fill-rule="nonzero">
            <path d="M36.1463761,0.392795603 C44.3971431,0.392795603 50.0940234,6.0898363 50.0940234,14.3406034 L50.0940234,32.2173167 C50.0940234,40.4680837 44.3971431,46.1651244 36.1463761,46.1651244 L14.1442825,46.1651244 L14.1442825,71.1140575 L0,71.1140575 L0,0.392795603 L36.1463761,0.392795603 Z M44.0041871,15.7157825 C44.0041871,9.62594621 40.4680772,6.0898363 34.3782409,6.0898363 L6.08983302,6.0898363 L6.08983302,65.4170136 L8.05428578,65.4170136 L8.05428578,40.4680804 L34.3782409,40.4680804 C40.4680772,40.4680804 44.0041871,36.932131 44.0041871,30.8421342 L44.0041871,15.7157825 Z M34.3782409,8.05428906 C39.2895332,8.05428906 42.0397343,10.8046506 42.0397343,15.7157825 L42.0397343,30.8421342 C42.0397343,35.7534266 39.2895332,38.5036277 34.3782409,38.5036277 L8.05428578,38.5036277 L8.05428578,8.05428251 L34.3782409,8.05428906 Z M32.6102661,32.8067442 C34.7711969,32.8067442 35.9499013,31.6280398 35.9499013,29.467109 L35.9499013,17.0909649 C35.9499013,14.9300341 34.7711969,13.7513297 32.6102661,13.7513297 L14.1442825,13.7513297 L14.1442825,32.8067442 L32.6102661,32.8067442 Z" id="Shape"></path>
            <path d="M65.5138906,71.1140543 L50.8784949,71.1140543 L73.6664972,0.392795603 L90.1680281,0.392795603 L112.956034,71.1140543 L97.7311974,71.1140543 L93.1148611,55.2014761 L70.2287049,55.2014761 L65.5138906,71.1140543 Z M104.606789,65.4170136 L86.4356006,6.0898363 L77.3989247,6.0898363 L58.9329411,65.4170136 L60.7992367,65.4170136 L65.7103686,49.504753 L97.9278391,49.504753 L102.740486,65.4170136 L104.606789,65.4170136 Z M78.5776291,8.05428906 L66.2996389,47.5403003 L97.3382413,47.5403003 L85.2568962,8.05428906 L78.5776291,8.05428906 Z M81.8189434,15.9122605 L89.2839588,41.8432596 L74.1576071,41.8432596 L81.8189434,15.9122605 Z" id="Shape"></path>
            <path d="M159.217233,71.1140543 L147.823472,44.8882596 L136.429388,44.8882596 L136.429388,71.1140543 L122.285262,71.1140543 L122.285262,0.392795603 L158.333485,0.392795603 C166.584252,0.392795603 172.280971,6.0898363 172.280971,14.3406034 L172.280971,30.9404518 C172.280971,37.6195585 168.548704,42.6290112 162.655346,44.2988255 L174.442063,71.1140543 L159.217233,71.1140543 Z M165.405387,65.4170136 L154.011626,39.2893761 L156.565349,39.2893761 C162.655346,39.2893761 166.191296,35.7534266 166.191296,29.6635903 L166.191296,15.7157825 C166.191296,9.62594621 162.655346,6.0898363 156.565349,6.0898363 L128.375259,6.0898363 L128.375259,65.4170136 L130.339712,65.4170136 L130.339712,39.2893761 L151.948692,39.2893761 L163.342774,65.4170136 L165.405387,65.4170136 Z M164.226843,29.6635903 C164.226843,34.5747222 161.476481,37.3249233 156.565349,37.3249233 L130.339712,37.3249233 L130.339712,8.05428906 L156.565349,8.05428906 C161.476481,8.05428906 164.226843,10.8046506 164.226843,15.7157825 L164.226843,29.6635903 Z M154.797214,31.7262002 C156.958305,31.7262002 158.136849,30.5474958 158.136849,28.386565 L158.136849,17.0909616 C158.136849,14.9300309 156.958305,13.7513265 154.797214,13.7513265 L136.429388,13.7513265 L136.429388,31.7262002 L154.797214,31.7262002 Z" id="Shape"></path>
            <path d="M220.60574,16.6980089 C220.60574,14.5370781 219.427196,13.3583737 217.266105,13.3583737 L201.943439,13.3583737 C199.782348,13.3583737 198.603804,14.5370781 198.603804,16.6980089 L198.603804,54.808841 C198.603804,56.9696113 199.782348,58.1481553 201.943439,58.1481553 L217.266118,58.1481553 C219.427209,58.1481553 220.605753,56.9696113 220.605753,54.808841 L220.605753,46.1651211 L234.750196,46.1651211 L234.750196,57.5592025 C234.750196,65.8096487 229.053155,71.5066894 220.802388,71.5066894 L198.407168,71.5066894 C190.156401,71.5066894 184.459681,65.8096487 184.459681,57.5592025 L184.459681,13.9478078 C184.459681,5.69688354 190.156401,0 198.407168,0 L220.802378,0 C229.053145,0 234.750186,5.69688026 234.750186,13.9478078 L234.750186,25.3417287 L220.60574,25.3417287 L220.60574,16.6980089 Z M219.034243,7.66149345 C223.945375,7.66149345 226.695737,10.4116946 226.695737,15.3228265 L226.695737,19.8411628 L228.660189,19.8411628 L228.660189,15.3228265 C228.660189,9.23299018 225.12424,5.69688026 219.034243,5.69688026 L200.175304,5.69688026 C194.085628,5.69688026 190.549357,9.23299018 190.549357,15.3228265 L190.549357,56.1837025 C190.549357,62.2736993 194.085628,65.8096487 200.175304,65.8096487 L219.034243,65.8096487 C225.12424,65.8096487 228.660189,62.2736993 228.660189,56.1837025 L228.660189,51.8621618 L226.695737,51.8621618 L226.695737,56.1837025 C226.695737,61.0951618 223.945375,63.845196 219.034243,63.845196 L200.175304,63.845196 C195.264172,63.845196 192.51381,61.0951553 192.51381,56.1837025 L192.51381,15.3228265 C192.51381,10.4116946 195.264172,7.66149345 200.175304,7.66149345 L219.034243,7.66149345 Z" id="Shape"></path>
            <path d="M293.584011,0.392795603 L293.584011,13.7513297 L261.464697,13.7513297 L261.464697,28.2884079 L287.494024,28.2884079 L287.494024,41.646775 L261.464697,41.646775 L261.464697,57.7555103 L293.584011,57.7555103 L293.584011,71.1140444 L247.320572,71.1140444 L247.320572,0.392795603 L293.584011,0.392795603 Z M287.494017,65.4170136 L287.494014,63.4525608 L255.375022,63.4525608 L255.375022,35.9498948 L281.404348,35.9498948 L281.404348,33.9852816 L255.375022,33.9852816 L255.375022,8.05428906 L287.494017,8.05428906 L287.494017,6.0898363 L253.410569,6.0898363 L253.410569,65.4170136 L287.494017,65.4170136 Z" id="Shape"></path>
            <path d="M320.201003,0.392795603 L320.201003,57.7555201 L349.864751,57.7555201 L349.864751,71.1140543 L306.056878,71.1140543 L306.056878,0.392795603 L320.201003,0.392795603 Z M343.774764,65.4170136 L343.774764,63.4525608 L314.111327,63.4525608 L314.111327,6.0898363 L312.146875,6.0898363 L312.146875,65.4170136 L343.774764,65.4170136 Z" id="Shape"></path>
        </g>
    </g>
</svg>